<svg width="87" height="28" viewBox="0 0 87 28" fill="none" xmlns="http://www.w3.org/2000/svg">
<rect opacity="0.3" width="28" height="28" rx="8" fill="white"/>
<path d="M14.4297 6V16.8571" stroke="#212121" stroke-linecap="round" stroke-linejoin="round"/>
<path d="M11 9.42857L14.4286 6L17.8571 9.42857" stroke="#212121" stroke-linecap="round" stroke-linejoin="round"/>
<path d="M17.2857 12.8572H21.8571V22H7V12.8572H11.5714" stroke="#212121" stroke-linecap="round" stroke-linejoin="round"/>
<path d="M46.0994 11.5H44.7784C44.7003 11.12 44.5636 10.7862 44.3683 10.4986C44.1765 10.2109 43.9421 9.96946 43.6651 9.77415C43.3917 9.57528 43.0881 9.42614 42.7543 9.3267C42.4205 9.22727 42.0724 9.17756 41.7102 9.17756C41.0497 9.17756 40.4513 9.34446 39.9151 9.67827C39.3825 10.0121 38.9581 10.5039 38.642 11.1538C38.3295 11.8036 38.1733 12.6009 38.1733 13.5455C38.1733 14.4901 38.3295 15.2873 38.642 15.9371C38.9581 16.587 39.3825 17.0788 39.9151 17.4126C40.4513 17.7464 41.0497 17.9134 41.7102 17.9134C42.0724 17.9134 42.4205 17.8636 42.7543 17.7642C43.0881 17.6648 43.3917 17.5174 43.6651 17.3221C43.9421 17.1232 44.1765 16.88 44.3683 16.5923C44.5636 16.3011 44.7003 15.9673 44.7784 15.5909H46.0994C46 16.1484 45.8189 16.6474 45.5561 17.0877C45.2933 17.5281 44.9666 17.9027 44.576 18.2116C44.1854 18.517 43.7468 18.7496 43.2603 18.9094C42.7773 19.0692 42.2607 19.1491 41.7102 19.1491C40.7798 19.1491 39.9524 18.9219 39.228 18.4673C38.5036 18.0128 37.9336 17.3665 37.5181 16.5284C37.1026 15.6903 36.8949 14.696 36.8949 13.5455C36.8949 12.3949 37.1026 11.4006 37.5181 10.5625C37.9336 9.72443 38.5036 9.07812 39.228 8.62358C39.9524 8.16903 40.7798 7.94176 41.7102 7.94176C42.2607 7.94176 42.7773 8.02166 43.2603 8.18146C43.7468 8.34126 44.1854 8.57564 44.576 8.88459C44.9666 9.18999 45.2933 9.56285 45.5561 10.0032C45.8189 10.44 46 10.9389 46.0994 11.5ZM49.0208 14.0781V19H47.7637V8.09091H49.0208V12.0966H49.1273C49.3191 11.674 49.6067 11.3384 49.9902 11.0898C50.3773 10.8377 50.8922 10.7116 51.535 10.7116C52.0925 10.7116 52.5808 10.8235 52.9998 11.0472C53.4188 11.2674 53.7438 11.6065 53.9746 12.0646C54.209 12.5192 54.3262 13.098 54.3262 13.8011V19H53.0691V13.8864C53.0691 13.2365 52.9004 12.734 52.563 12.3789C52.2292 12.0202 51.7658 11.8409 51.1727 11.8409C50.7608 11.8409 50.3915 11.9279 50.0648 12.1019C49.7416 12.2759 49.486 12.5298 49.2977 12.8636C49.1131 13.1974 49.0208 13.6023 49.0208 14.0781ZM56.326 19V10.8182H57.5831V19H56.326ZM56.9652 9.45455C56.7201 9.45455 56.5088 9.37109 56.3313 9.20419C56.1573 9.03729 56.0703 8.83665 56.0703 8.60227C56.0703 8.3679 56.1573 8.16726 56.3313 8.00035C56.5088 7.83345 56.7201 7.75 56.9652 7.75C57.2102 7.75 57.4197 7.83345 57.5937 8.00035C57.7713 8.16726 57.86 8.3679 57.86 8.60227C57.86 8.83665 57.7713 9.03729 57.5937 9.20419C57.4197 9.37109 57.2102 9.45455 56.9652 9.45455ZM61.9932 19.1918C61.4747 19.1918 61.0042 19.0941 60.5816 18.8988C60.159 18.6999 59.8235 18.4141 59.5749 18.0412C59.3263 17.6648 59.202 17.2102 59.202 16.6776C59.202 16.2088 59.2943 15.8288 59.479 15.5376C59.6637 15.2429 59.9105 15.0121 60.2194 14.8452C60.5284 14.6783 60.8693 14.554 61.2421 14.4723C61.6186 14.3871 61.9968 14.3196 62.3767 14.2699C62.8739 14.206 63.2769 14.158 63.5859 14.1261C63.8984 14.0906 64.1257 14.032 64.2677 13.9503C64.4133 13.8686 64.4861 13.7266 64.4861 13.5241V13.4815C64.4861 12.956 64.3423 12.5476 64.0546 12.2564C63.7705 11.9652 63.3391 11.8196 62.7602 11.8196C62.1601 11.8196 61.6896 11.951 61.3487 12.2138C61.0078 12.4766 60.7681 12.7571 60.6296 13.0554L59.4364 12.6293C59.6495 12.1321 59.9335 11.745 60.2887 11.468C60.6473 11.1875 61.0379 10.9922 61.4605 10.8821C61.8867 10.7685 62.3057 10.7116 62.7176 10.7116C62.9804 10.7116 63.2823 10.7436 63.6232 10.8075C63.9676 10.8679 64.2997 10.994 64.6193 11.1857C64.9424 11.3775 65.2105 11.6669 65.4236 12.054C65.6367 12.4411 65.7432 12.9595 65.7432 13.6094V19H64.4861V17.892H64.4222C64.337 18.0696 64.1949 18.2596 63.996 18.462C63.7972 18.6644 63.5326 18.8366 63.2024 18.9787C62.8721 19.1207 62.4691 19.1918 61.9932 19.1918ZM62.185 18.0625C62.6821 18.0625 63.1012 17.9648 63.4421 17.7695C63.7865 17.5742 64.0458 17.3221 64.2198 17.0131C64.3973 16.7042 64.4861 16.3793 64.4861 16.0384V14.8878C64.4328 14.9517 64.3156 15.0103 64.1345 15.0636C63.957 15.1133 63.751 15.1577 63.5166 15.1967C63.2858 15.2322 63.0603 15.2642 62.8401 15.2926C62.6235 15.3175 62.4477 15.3388 62.3128 15.3565C61.9861 15.3991 61.6807 15.4684 61.3966 15.5643C61.1161 15.6566 60.8888 15.7969 60.7148 15.9851C60.5443 16.1697 60.4591 16.4219 60.4591 16.7415C60.4591 17.1783 60.6207 17.5085 60.9438 17.7322C61.2705 17.9524 61.6843 18.0625 62.185 18.0625ZM77.4519 12.6506L76.3226 12.9702C76.2516 12.782 76.1468 12.5991 76.0083 12.4215C75.8734 12.2404 75.6887 12.0913 75.4544 11.9741C75.22 11.8569 74.9199 11.7983 74.5542 11.7983C74.0534 11.7983 73.6362 11.9137 73.3024 12.1445C72.9721 12.3718 72.807 12.6612 72.807 13.0128C72.807 13.3253 72.9206 13.5721 73.1479 13.7532C73.3752 13.9343 73.7303 14.0852 74.2132 14.206L75.4277 14.5043C76.1593 14.6818 76.7044 14.9535 77.063 15.3192C77.4217 15.6815 77.601 16.1484 77.601 16.7202C77.601 17.1889 77.4661 17.608 77.1962 17.9773C76.9299 18.3466 76.557 18.6378 76.0776 18.8509C75.5982 19.0639 75.0407 19.1705 74.405 19.1705C73.5705 19.1705 72.8798 18.9893 72.3329 18.6271C71.786 18.2649 71.4398 17.7358 71.2942 17.0398L72.4874 16.7415C72.601 17.1818 72.8159 17.5121 73.1319 17.7322C73.4515 17.9524 73.8688 18.0625 74.3837 18.0625C74.9696 18.0625 75.4348 17.9382 75.7793 17.6896C76.1273 17.4375 76.3013 17.1357 76.3013 16.7841C76.3013 16.5 76.2019 16.2621 76.003 16.0703C75.8042 15.875 75.4988 15.7294 75.0868 15.6335L73.7232 15.3139C72.9739 15.1364 72.4235 14.8612 72.0719 14.4883C71.7239 14.1119 71.5499 13.6413 71.5499 13.0767C71.5499 12.6151 71.6795 12.2067 71.9387 11.8516C72.2015 11.4964 72.5584 11.2177 73.0094 11.0153C73.464 10.8129 73.9789 10.7116 74.5542 10.7116C75.3638 10.7116 75.9995 10.8892 76.4611 11.2443C76.9263 11.5994 77.2566 12.0682 77.4519 12.6506ZM82.6237 19.1705C81.8354 19.1705 81.1553 18.9964 80.5836 18.6484C80.0154 18.2969 79.5769 17.8068 79.2679 17.1783C78.9625 16.5462 78.8098 15.8111 78.8098 14.973C78.8098 14.1349 78.9625 13.3963 79.2679 12.7571C79.5769 12.1143 80.0066 11.6136 80.557 11.255C81.111 10.8928 81.7573 10.7116 82.4959 10.7116C82.922 10.7116 83.3428 10.7827 83.7583 10.9247C84.1738 11.0668 84.552 11.2976 84.8929 11.6172C85.2338 11.9332 85.5055 12.3523 85.7079 12.8743C85.9103 13.3963 86.0115 14.0391 86.0115 14.8026V15.3352H79.7047V14.2486H84.7331C84.7331 13.7869 84.6408 13.375 84.4561 13.0128C84.275 12.6506 84.0158 12.3647 83.6784 12.1552C83.3446 11.9457 82.9504 11.8409 82.4959 11.8409C81.9952 11.8409 81.562 11.9652 81.1962 12.2138C80.834 12.4588 80.5552 12.7784 80.3599 13.1726C80.1646 13.5668 80.0669 13.9893 80.0669 14.4403V15.1648C80.0669 15.7827 80.1735 16.3065 80.3865 16.7362C80.6031 17.1623 80.9032 17.4872 81.2867 17.7109C81.6703 17.9311 82.1159 18.0412 82.6237 18.0412C82.954 18.0412 83.2523 17.995 83.5186 17.9027C83.7885 17.8068 84.0211 17.6648 84.2164 17.4766C84.4117 17.2848 84.5627 17.0469 84.6692 16.7628L85.8837 17.1037C85.7558 17.5156 85.541 17.8778 85.2392 18.1903C84.9373 18.4993 84.5644 18.7408 84.1205 18.9148C83.6767 19.0852 83.1777 19.1705 82.6237 19.1705ZM82.986 9.71023H81.9419V8.55966C82.3148 8.53835 82.5776 8.48686 82.7303 8.40518C82.8865 8.32351 82.9646 8.19744 82.9646 8.02699C82.9646 7.83523 82.8528 7.69496 82.6291 7.60618C82.4053 7.5174 82.1337 7.47301 81.8141 7.47301L81.8567 6.66335C82.5918 6.66335 83.1475 6.79119 83.524 7.04688C83.9039 7.30256 84.0939 7.64347 84.0939 8.0696C84.0939 8.43182 83.9785 8.69638 83.7477 8.86328C83.5169 9.03018 83.2629 9.13494 82.986 9.17756V9.71023Z" fill="white"/>
</svg>
