<svg width="24" height="24" viewBox="0 0 24 24" fill="none" xmlns="http://www.w3.org/2000/svg">
<rect width="24" height="24" fill="white"/>
<path d="M16.2005 9.45433C16.2005 12.2035 11.5339 17.1161 11.5339 17.1161C11.5339 17.1161 6.86719 12.2039 6.86719 9.45433C6.86719 6.63567 9.27892 5 11.5339 5C13.7888 5 16.2005 6.63567 16.2005 9.45433Z" stroke="#333333" stroke-linecap="round" stroke-linejoin="round"/>
<path d="M11.5328 11.0664C12.306 11.0664 12.9328 10.4396 12.9328 9.66636C12.9328 8.89316 12.306 8.26636 11.5328 8.26636C10.7596 8.26636 10.1328 8.89316 10.1328 9.66636C10.1328 10.4396 10.7596 11.0664 11.5328 11.0664Z" stroke="#333333" stroke-linecap="round" stroke-linejoin="round"/>
<path d="M7.8 15.6013C6.1074 15.9387 5 16.4992 5 17.1334C5 18.1643 7.92507 19.0001 11.5333 19.0001C15.1416 19.0001 18.0667 18.1643 18.0667 17.1334C18.0667 16.4992 16.9593 15.9387 15.2667 15.6013" stroke="#333333" stroke-linecap="round" stroke-linejoin="round"/>
</svg>
