<svg width="75" height="40" viewBox="0 0 75 40" fill="none" xmlns="http://www.w3.org/2000/svg">
<path d="M2.53125 39.8458V33.4468H4.32856L5.20531 37.5899L6.08206 33.4468H7.8771V39.8458H6.7392L6.76423 34.1699L5.56944 39.8458H4.8372L3.64241 34.1699L3.67199 39.8458H2.53125Z" fill="black"/>
<path d="M8.96484 39.8458V33.4468H12.2517V34.5107H10.1466V35.99H12.1037V37.0039H10.1466V38.7676H12.2989V39.8486L8.96484 39.8458Z" fill="black"/>
<path d="M13.1758 39.8458V33.4468H16.4626V34.5107H14.3575V35.99H16.3147V37.0039H14.3575V38.7676H16.5098V39.8486L13.1758 39.8458Z" fill="black"/>
<path d="M18.3009 39.8458V34.5022H16.9297V33.4468H20.8645V34.5022H19.4934V39.8458H18.3009Z" fill="black"/>
<path d="M24.8268 39.8458V37.1325L23.1484 33.4469H24.4684L25.4356 35.8524L26.3909 33.4463H27.6773L26.0273 37.1319V39.8453L24.8268 39.8458Z" fill="black"/>
<path d="M28.168 36.6489C28.168 35.9563 28.1991 35.4113 28.2613 35.0138C28.3235 34.6163 28.424 34.3128 28.5628 34.1034C28.7192 33.8356 28.9493 33.6183 29.2256 33.4776C29.4843 33.3532 29.8242 33.2908 30.2452 33.2904C30.6662 33.29 31.0036 33.3517 31.2574 33.4753C31.516 33.599 31.7412 33.8076 31.9327 34.1012C32.0624 34.3037 32.1607 34.6113 32.2274 35.024C32.2581 35.2182 32.2817 35.4522 32.298 35.7261C32.3143 35.9999 32.3226 36.306 32.323 36.6444C32.323 37.3339 32.2911 37.879 32.2274 38.2795C32.1637 38.6801 32.0655 38.9826 31.9327 39.187C31.7431 39.4813 31.52 39.69 31.2636 39.8128C31.0072 39.9357 30.6677 39.9974 30.2452 39.9978C29.8299 39.9978 29.4927 39.9354 29.2336 39.8106C28.956 39.6686 28.7237 39.4518 28.5628 39.1847C28.4297 38.9799 28.3299 38.6753 28.2636 38.271C28.2328 38.0741 28.2093 37.8386 28.193 37.5644C28.1767 37.2901 28.1683 36.985 28.168 36.6489ZM29.3855 36.6489C29.3855 37.7041 29.4472 38.3679 29.5704 38.6402C29.6937 38.9126 29.9213 39.0484 30.2532 39.0476C30.5748 39.0476 30.7971 38.9139 30.92 38.6465C31.0429 38.3791 31.1051 37.7132 31.1066 36.6489C31.1066 35.5823 31.0457 34.914 30.924 34.6439C30.8022 34.3739 30.5763 34.2388 30.2463 34.2388C29.9198 34.2388 29.6941 34.3746 29.5693 34.6462C29.5075 34.7801 29.4618 35.0115 29.4322 35.3403C29.4026 35.6692 29.3874 36.1054 29.3867 36.6489H29.3855Z" fill="black"/>
<path d="M33.2925 33.4468H34.4873V37.76C34.4873 38.2504 34.5474 38.5842 34.6676 38.7613C34.7879 38.9385 35.002 39.0272 35.31 39.0276C35.6115 39.0276 35.822 38.9383 35.9415 38.7596C36.061 38.581 36.1205 38.2423 36.1202 37.7435V33.4468H37.2939V37.8641C37.2939 38.2878 37.2704 38.5994 37.2233 38.7989C37.18 38.9901 37.0964 39.1699 36.9781 39.3263C36.8009 39.5542 36.5648 39.7295 36.2954 39.8332C36.1462 39.8903 35.9916 39.9322 35.834 39.9584C35.6541 39.9872 35.4722 40.0011 35.2901 39.9999C34.561 39.9999 34.0458 39.842 33.7442 39.526C33.4427 39.21 33.291 38.6561 33.2891 37.8641L33.2925 33.4468Z" fill="black"/>
<path d="M38.375 39.8458V33.4468H40.5103C41.1551 33.4468 41.6192 33.5784 41.9025 33.8416C42.0505 33.9826 42.1605 34.1588 42.2222 34.3537C42.2997 34.6018 42.3362 34.8608 42.3303 35.1206C42.3303 35.5379 42.2556 35.8646 42.1062 36.1009C41.9567 36.3372 41.7309 36.4785 41.4286 36.5248C41.7015 36.5906 41.9375 36.7616 42.0851 37.0004C42.2368 37.2428 42.3127 37.5622 42.3127 37.9586V38.0416L42.3457 38.8894C42.3452 38.9943 42.353 39.0991 42.369 39.2028C42.3827 39.2942 42.4056 39.384 42.4373 39.4708C42.4859 39.6113 42.5654 39.739 42.67 39.8446H41.2584C41.2223 39.7212 41.1973 39.5948 41.1839 39.4668C41.1782 39.406 41.1714 39.3132 41.1629 39.188C41.1543 39.0629 41.1503 38.9502 41.1503 38.8467L41.1338 38.1776V38.0069C41.1338 37.639 41.0542 37.3849 40.8949 37.2445C40.7356 37.1042 40.4149 37.0342 39.9328 37.0346H39.5254V39.8435L38.375 39.8458ZM39.5254 36.1521H40.2116C40.5529 36.1521 40.7925 36.0822 40.9302 35.9422C41.0678 35.8022 41.1357 35.5557 41.1338 35.2026C41.1338 34.887 41.0597 34.6647 40.9114 34.5357C40.7631 34.4068 40.4964 34.3425 40.1114 34.3429H39.5254V36.1521Z" fill="black"/>
<path d="M45.4141 39.8458V33.4468H47.2091L48.0859 37.5899L48.9626 33.4468H50.7565V39.8458H49.6186L49.6436 34.1699L48.4488 39.8458H47.72L46.5252 34.1699L46.5548 39.8458H45.4141Z" fill="black"/>
<path d="M51.8438 39.8458V33.4468H55.13V34.5107H53.0249V35.99H54.9821V37.0039H53.0294V38.7676H55.1818V39.8486L51.8438 39.8458Z" fill="black"/>
<path d="M56.0586 39.8458V33.4468H57.2841L58.9483 37.9221L58.9153 33.4468H60.0412V39.8458H58.8237L57.1447 35.3624L57.1783 39.8458H56.0586Z" fill="black"/>
<path d="M62.043 39.8458V34.5022H60.6719V33.4468H64.6067V34.5022H63.2356V39.8458H62.043Z" fill="black"/>
<path d="M65.1055 36.6489C65.1055 35.9563 65.1366 35.4113 65.1988 35.0138C65.261 34.6162 65.3615 34.3128 65.5003 34.1034C65.6567 33.8356 65.8868 33.6183 66.1632 33.4776C66.4218 33.3532 66.7619 33.2908 67.1833 33.2904C67.6005 33.2904 67.9377 33.352 68.1949 33.4753C68.452 33.5986 68.6771 33.8072 68.8702 34.1012C69.0007 34.3037 69.0989 34.6113 69.1649 35.024C69.1957 35.2182 69.2192 35.4522 69.2355 35.7261C69.2518 35.9999 69.2601 36.306 69.2605 36.6444C69.2605 37.3339 69.2287 37.879 69.1649 38.2795C69.1012 38.6801 69.003 38.9826 68.8702 39.187C68.6806 39.4813 68.4575 39.69 68.2011 39.8128C67.9447 39.9357 67.6054 39.9974 67.1833 39.9978C66.766 39.9978 66.4287 39.9354 66.1711 39.8106C65.8935 39.6686 65.6612 39.4518 65.5003 39.1847C65.3672 38.9799 65.2674 38.6753 65.2011 38.271C65.1703 38.0741 65.1468 37.8386 65.1305 37.5644C65.1142 37.2901 65.1058 36.985 65.1055 36.6489ZM66.323 36.6489C66.323 37.7041 66.3847 38.3679 66.5079 38.6402C66.6312 38.9126 66.8588 39.0484 67.1907 39.0476C67.5123 39.0476 67.7346 38.9139 67.8575 38.6465C67.9804 38.3791 68.042 37.7136 68.0424 36.6501C68.0424 35.5835 67.9815 34.9151 67.8598 34.6451C67.738 34.375 67.5123 34.24 67.1827 34.24C66.8557 34.24 66.6299 34.3758 66.5051 34.6474C66.444 34.7828 66.3983 35.0155 66.368 35.3455C66.3376 35.6754 66.3226 36.1099 66.323 36.6489Z" fill="black"/>
<path d="M70.2266 39.8458V33.4468H72.3624C73.0072 33.4468 73.4711 33.5784 73.754 33.8416C73.9023 33.9826 74.0125 34.1587 74.0744 34.3537C74.1516 34.6018 74.1881 34.8608 74.1825 35.1206C74.1825 35.5379 74.1066 35.8646 73.9549 36.1009C73.8806 36.2175 73.7813 36.316 73.6642 36.3893C73.5471 36.4626 73.4151 36.5089 73.2778 36.5248C73.5507 36.5908 73.7866 36.7617 73.9344 37.0004C74.0861 37.2428 74.162 37.5622 74.162 37.9586V38.0416L74.1956 38.8894C74.1948 38.9943 74.2024 39.0991 74.2183 39.2028C74.2326 39.2941 74.2554 39.3838 74.2866 39.4708C74.3354 39.6112 74.4149 39.7389 74.5193 39.8446H73.1066C73.0704 39.7212 73.0455 39.5948 73.0321 39.4668C73.0264 39.406 73.0195 39.3132 73.011 39.188C73.0025 39.0629 72.9985 38.9502 72.9985 38.8467L72.982 38.1776V38.0069C72.982 37.639 72.9023 37.3849 72.743 37.2445C72.5837 37.1042 72.2632 37.0342 71.7815 37.0346H71.3741V39.8435L70.2266 39.8458ZM71.3775 36.1521H72.0603C72.4039 36.1521 72.6435 36.0822 72.7789 35.9422C72.9143 35.8022 72.9822 35.5557 72.9826 35.2026C72.9826 34.887 72.9084 34.6647 72.7601 34.5357C72.6118 34.4068 72.3463 34.3425 71.9636 34.3429H71.3775V36.1521Z" fill="black"/>
<path d="M7.67987 25.8769L11.1658 19.165L4.12109 15.7576L7.67987 25.8769Z" fill="#EE6C21"/>
<path d="M4.12109 15.7571L9.25643 18.2428L6.54539 10.4932L4.12109 15.7571Z" fill="#F5B618"/>
<path style="mix-blend-mode:multiply" d="M4.12109 15.7571L9.25643 18.2428L6.54539 10.4932L4.12109 15.7571Z" fill="url(#paint0_linear_3894_7082)"/>
<path style="mix-blend-mode:multiply" d="M7.67987 25.8769L11.1658 19.165L4.12109 15.7576L7.67987 25.8769Z" fill="url(#paint1_linear_3894_7082)"/>
<path d="M28.882 0.611084L26.5664 5.1166L30.9251 6.94577L28.882 0.611084Z" fill="#F5B618"/>
<path style="mix-blend-mode:multiply" d="M28.8781 0.604736L26.5625 5.11025L30.9218 6.93942L28.8781 0.604736Z" fill="url(#paint2_linear_3894_7082)"/>
<path d="M28.8866 0.612183L18.2985 22.684C18.0243 23.2495 17.4917 23.6569 16.8323 23.8054L7.68359 25.8701L19.528 2.97731C19.8022 2.41177 20.3348 2.0044 20.9925 1.86501L28.8866 0.612183Z" fill="#00BECB"/>
<path d="M29.8514 3.64929L30.9091 6.93441L28.5508 8.19292L29.8514 3.64929Z" fill="#0575E5"/>
<path style="mix-blend-mode:multiply" d="M16.6914 8.41479L21.6231 15.7468L24.7358 9.26366L18.5985 4.86511L16.6914 8.41479Z" fill="url(#paint3_linear_3894_7082)"/>
<path style="mix-blend-mode:multiply" d="M13.5313 14.5947L21.3031 16.4273L18.5272 22.1885L11.668 18.1757L13.5313 14.5947Z" fill="url(#paint4_linear_3894_7082)"/>
<path d="M22.7398 13.4295L18.9585 21.3134L0 0L13.6241 0.145651L22.7398 13.4295Z" fill="#0575E6"/>
<path d="M40.183 10.7303L36.1736 17.1805L32.1643 10.7303H28.5469V25.9833H31.8371V16.0904L34.3263 19.8358H37.9277L40.4664 16.0239V25.9805H43.7998V10.7303H40.183Z" fill="#00BECB"/>
<path style="mix-blend-mode:multiply" opacity="0.7" d="M43.8022 25.9833V10.7303L40.4688 16.0256V25.9833H43.8022Z" fill="url(#paint5_linear_3894_7082)"/>
<path style="mix-blend-mode:multiply" opacity="0.7" d="M31.8387 16.0894L28.5508 10.7384V25.9919H31.8376L31.8387 16.0894Z" fill="url(#paint6_linear_3894_7082)"/>
<path style="mix-blend-mode:multiply" opacity="0.7" d="M43.8005 10.7303H40.1837L36.1641 17.1726L37.9233 19.8438L43.8005 10.7303Z" fill="url(#paint7_linear_3894_7082)"/>
<path d="M71.2628 10.7303L67.2528 17.1805L63.2434 10.7303H59.6289V25.9833H62.9197V16.0904L65.4083 19.8358H69.0097L71.5484 16.0239V25.9805H74.8819V10.7303H71.2628Z" fill="#00BECB"/>
<path style="mix-blend-mode:multiply" opacity="0.7" d="M74.8803 25.9833V10.7303L71.5469 16.0256V25.9833H74.8803Z" fill="url(#paint8_linear_3894_7082)"/>
<path style="mix-blend-mode:multiply" opacity="0.7" d="M62.9208 16.0894L59.6328 10.7384V25.9919H62.9196L62.9208 16.0894Z" fill="url(#paint9_linear_3894_7082)"/>
<path style="mix-blend-mode:multiply" opacity="0.7" d="M74.8825 10.7303H71.2657L67.2461 17.1726L69.0053 19.8438L74.8825 10.7303Z" fill="url(#paint10_linear_3894_7082)"/>
<path d="M54.8124 10.6815L50.0781 18.0608L53.3348 18.0562L58.3495 10.6969L54.8124 10.6815Z" fill="#00BECB"/>
<path style="mix-blend-mode:multiply" opacity="0.7" d="M54.8124 10.6815L50.0781 18.0608L53.3348 18.0562L58.3495 10.6969L54.8124 10.6815Z" fill="url(#paint11_linear_3894_7082)"/>
<path d="M53.3345 18.0362V25.9037H50.0784V18.0317L45.0625 10.674L48.6019 10.6564L53.3322 18.0317L53.3345 18.0362Z" fill="#00BECB"/>
<defs>
<linearGradient id="paint0_linear_3894_7082" x1="8.59588" y1="21.6184" x2="5.9332" y2="14.688" gradientUnits="userSpaceOnUse">
<stop offset="0.13"/>
<stop offset="0.75" stop-color="#253A1A" stop-opacity="0"/>
</linearGradient>
<linearGradient id="paint1_linear_3894_7082" x1="17.4029" y1="22.5032" x2="4.01977" y2="20.5573" gradientUnits="userSpaceOnUse">
<stop offset="0.13"/>
<stop offset="0.75" stop-color="#253A1A" stop-opacity="0"/>
</linearGradient>
<linearGradient id="paint2_linear_3894_7082" x1="23.7932" y1="-1.93124" x2="30.3615" y2="6.08068" gradientUnits="userSpaceOnUse">
<stop offset="0.13"/>
<stop offset="0.75" stop-color="#253A1A" stop-opacity="0"/>
</linearGradient>
<linearGradient id="paint3_linear_3894_7082" x1="16.522" y1="15.7048" x2="22.6533" y2="6.49304" gradientUnits="userSpaceOnUse">
<stop offset="0.13"/>
<stop offset="0.75" stop-color="#253A1A" stop-opacity="0"/>
</linearGradient>
<linearGradient id="paint4_linear_3894_7082" x1="17.5665" y1="15.1013" x2="13.7651" y2="23.8285" gradientUnits="userSpaceOnUse">
<stop offset="0.13"/>
<stop offset="0.75" stop-color="#253A1A" stop-opacity="0"/>
</linearGradient>
<linearGradient id="paint5_linear_3894_7082" x1="41.077" y1="2.5864" x2="42.4942" y2="23.6978" gradientUnits="userSpaceOnUse">
<stop offset="0.13"/>
<stop offset="0.75" stop-color="#1B3A00" stop-opacity="0"/>
</linearGradient>
<linearGradient id="paint6_linear_3894_7082" x1="31.2527" y1="2.59332" x2="29.8355" y2="23.7048" gradientUnits="userSpaceOnUse">
<stop offset="0.13"/>
<stop offset="0.75" stop-color="#1B3A00" stop-opacity="0"/>
</linearGradient>
<linearGradient id="paint7_linear_3894_7082" x1="31.6967" y1="25.655" x2="40.8511" y2="12.7535" gradientUnits="userSpaceOnUse">
<stop offset="0.13"/>
<stop offset="0.75" stop-color="#1B3A00" stop-opacity="0"/>
</linearGradient>
<linearGradient id="paint8_linear_3894_7082" x1="72.1551" y1="2.5864" x2="73.5723" y2="23.6978" gradientUnits="userSpaceOnUse">
<stop offset="0.13"/>
<stop offset="0.75" stop-color="#1B3A00" stop-opacity="0"/>
</linearGradient>
<linearGradient id="paint9_linear_3894_7082" x1="62.3348" y1="2.59332" x2="60.9175" y2="23.7048" gradientUnits="userSpaceOnUse">
<stop offset="0.13"/>
<stop offset="0.75" stop-color="#1B3A00" stop-opacity="0"/>
</linearGradient>
<linearGradient id="paint10_linear_3894_7082" x1="62.7787" y1="25.655" x2="71.9331" y2="12.7535" gradientUnits="userSpaceOnUse">
<stop offset="0.13"/>
<stop offset="0.75" stop-color="#1B3A00" stop-opacity="0"/>
</linearGradient>
<linearGradient id="paint11_linear_3894_7082" x1="49.5866" y1="20.142" x2="54.7987" y2="13.4358" gradientUnits="userSpaceOnUse">
<stop offset="0.13"/>
<stop offset="0.75" stop-color="#1B3A00" stop-opacity="0"/>
</linearGradient>
</defs>
</svg>
