<svg width="123" height="40" viewBox="0 0 123 40" fill="none" xmlns="http://www.w3.org/2000/svg">
<path d="M48.4985 9.29196V22.3073H44.8985V14.9227L42.4801 22.3073H39.3601L36.9416 14.9227V22.3073H33.3047V9.29196H37.7539L40.9662 17.7473L44.0862 9.29196H48.4985Z" fill="#056FFE"/>
<path d="M62.1996 9.23657L57.5842 18.1535V22.3073H53.9658V18.1535L49.3504 9.23657H53.5042L55.8119 14.2212L58.1011 9.23657H62.1996Z" fill="#056FFE"/>
<path d="M78.2353 9.29196V22.3073H74.6353V14.9227L72.2169 22.3073H69.0969L66.6784 14.9227V22.3073H63.0415V9.29196H67.4907L70.703 17.7473L73.823 9.29196H78.2353Z" fill="#056FFE"/>
<path d="M40.2335 26.4478V33.8462H39.7489V27.2985L36.9274 33.8462H36.4858L33.6643 27.3416V33.8462H33.1797V26.4478H33.7289L36.712 33.2324L39.6735 26.4478H40.2335Z" fill="#056FFE"/>
<path d="M44.2825 33.5124C44.8712 33.5124 45.3666 33.3652 45.7687 33.0708C46.1707 32.7693 46.4148 32.3601 46.501 31.8431H47.0071C46.8995 32.4678 46.6051 32.9703 46.1241 33.3508C45.6502 33.7313 45.0436 33.9216 44.3041 33.9216C43.7512 33.9216 43.2595 33.8031 42.8287 33.5662C42.4051 33.3221 42.0712 32.9739 41.8271 32.5216C41.583 32.0693 41.461 31.5344 41.461 30.917C41.461 30.3067 41.583 29.7754 41.8271 29.3231C42.0712 28.8708 42.4051 28.5262 42.8287 28.2893C43.2595 28.0452 43.7512 27.9231 44.3041 27.9231C44.8712 27.9231 45.3595 28.0452 45.7687 28.2893C46.1851 28.5262 46.4974 28.8421 46.7056 29.237C46.921 29.6247 47.0287 30.0411 47.0287 30.4862C47.0287 30.6657 47.0107 30.856 46.9748 31.057H41.9456C41.9528 31.6026 42.0641 32.0621 42.2795 32.4354C42.502 32.8016 42.7856 33.0744 43.1302 33.2539C43.482 33.4262 43.8661 33.5124 44.2825 33.5124ZM44.3041 28.3216C43.8805 28.3216 43.4928 28.4113 43.141 28.5908C42.7892 28.7703 42.502 29.0431 42.2795 29.4093C42.0641 29.7754 41.9528 30.2278 41.9456 30.7662H46.5548C46.5836 30.2278 46.4938 29.7754 46.2856 29.4093C46.0774 29.036 45.7974 28.7631 45.4456 28.5908C45.0938 28.4113 44.7133 28.3216 44.3041 28.3216Z" fill="#056FFE"/>
<path d="M50.8036 33.5124C51.3923 33.5124 51.8877 33.3652 52.2897 33.0708C52.6918 32.7693 52.9359 32.3601 53.022 31.8431H53.5282C53.4205 32.4678 53.1261 32.9703 52.6451 33.3508C52.1713 33.7313 51.5646 33.9216 50.8251 33.9216C50.2723 33.9216 49.7805 33.8031 49.3497 33.5662C48.9261 33.3221 48.5923 32.9739 48.3482 32.5216C48.1041 32.0693 47.982 31.5344 47.982 30.917C47.982 30.3067 48.1041 29.7754 48.3482 29.3231C48.5923 28.8708 48.9261 28.5262 49.3497 28.2893C49.7805 28.0452 50.2723 27.9231 50.8251 27.9231C51.3923 27.9231 51.8805 28.0452 52.2897 28.2893C52.7061 28.5262 53.0184 28.8421 53.2266 29.237C53.442 29.6247 53.5497 30.0411 53.5497 30.4862C53.5497 30.6657 53.5318 30.856 53.4959 31.057H48.4666C48.4738 31.6026 48.5851 32.0621 48.8005 32.4354C49.0231 32.8016 49.3066 33.0744 49.6513 33.2539C50.0031 33.4262 50.3872 33.5124 50.8036 33.5124ZM50.8251 28.3216C50.4015 28.3216 50.0138 28.4113 49.662 28.5908C49.3102 28.7703 49.0231 29.0431 48.8005 29.4093C48.5851 29.7754 48.4738 30.2278 48.4666 30.7662H53.0759C53.1046 30.2278 53.0148 29.7754 52.8066 29.4093C52.5984 29.036 52.3184 28.7631 51.9666 28.5908C51.6148 28.4113 51.2343 28.3216 50.8251 28.3216Z" fill="#056FFE"/>
<path d="M55.5261 28.4401V32.1985C55.5261 32.6652 55.6087 32.9847 55.7738 33.157C55.939 33.3221 56.2297 33.4047 56.6461 33.4047H57.26V33.8462H56.5923C56.0538 33.8462 55.659 33.7206 55.4077 33.4693C55.1636 33.218 55.0415 32.7944 55.0415 32.1985V28.4401H54.1154V27.9985H55.0415V26.5124H55.5261V27.9985H57.26V28.4401H55.5261Z" fill="#056FFE"/>
<path d="M60.8908 27.9985L63.0877 33.2001L65.1231 27.9985H65.6615L62.2692 36.6031H61.7092L62.8292 33.8139L60.3523 27.9985H60.8908Z" fill="#056FFE"/>
<path d="M69.0857 27.9231C69.6386 27.9231 70.1339 28.0452 70.5719 28.2893C71.0098 28.5262 71.3509 28.8708 71.595 29.3231C71.8463 29.7754 71.9719 30.3067 71.9719 30.917C71.9719 31.5344 71.8463 32.0693 71.595 32.5216C71.3509 32.9739 71.0098 33.3221 70.5719 33.5662C70.1339 33.8031 69.6386 33.9216 69.0857 33.9216C68.5401 33.9216 68.0483 33.8031 67.6104 33.5662C67.1724 33.3221 66.8278 32.9739 66.5765 32.5216C66.3252 32.0621 66.1996 31.5272 66.1996 30.917C66.1996 30.3067 66.3252 29.7754 66.5765 29.3231C66.8278 28.8708 67.1724 28.5262 67.6104 28.2893C68.0483 28.0452 68.5401 27.9231 69.0857 27.9231ZM69.0857 28.3539C68.6621 28.3539 68.2673 28.4472 67.9011 28.6339C67.5421 28.8206 67.2514 29.1078 67.0288 29.4954C66.8063 29.876 66.695 30.3498 66.695 30.917C66.695 31.4842 66.8063 31.9616 67.0288 32.3493C67.2514 32.737 67.5421 33.0242 67.9011 33.2108C68.2673 33.3975 68.6621 33.4908 69.0857 33.4908C69.5093 33.4908 69.9006 33.3975 70.2596 33.2108C70.6257 33.0242 70.9201 32.737 71.1427 32.3493C71.3652 31.9616 71.4765 31.4842 71.4765 30.917C71.4765 30.3498 71.3652 29.876 71.1427 29.4954C70.9273 29.1078 70.6365 28.8206 70.2704 28.6339C69.9114 28.4472 69.5165 28.3539 69.0857 28.3539Z" fill="#056FFE"/>
<path d="M78.0571 27.9985V33.8462H77.5617V32.317C77.4181 32.8554 77.1417 33.2647 76.7325 33.5447C76.3304 33.8247 75.8638 33.9647 75.3325 33.9647C74.6504 33.9647 74.094 33.7493 73.6633 33.3185C73.2325 32.8878 73.0171 32.2488 73.0171 31.4016V27.9985H73.491V31.3908C73.491 32.0872 73.6669 32.6221 74.0187 32.9954C74.3704 33.3616 74.8515 33.5447 75.4617 33.5447C76.1007 33.5447 76.6104 33.3401 76.991 32.9308C77.3715 32.5144 77.5617 31.9042 77.5617 31.1001V27.9985H78.0571Z" fill="#056FFE"/>
<path d="M80.0483 29.2908C80.1991 28.8313 80.4647 28.4831 80.8453 28.2462C81.2258 28.0021 81.7104 27.8801 82.2991 27.8801V28.4078H82.1376C81.5489 28.4078 81.0535 28.5729 80.6514 28.9031C80.2494 29.2334 80.0483 29.7683 80.0483 30.5078V33.8462H79.5637V27.9985H80.0483V29.2908Z" fill="#056FFE"/>
<path d="M92.8535 27.8801C93.514 27.8801 94.0489 28.0954 94.4581 28.5262C94.8745 28.957 95.0827 29.5924 95.0827 30.4324V33.8462H94.6089V30.4539C94.6089 29.7575 94.4437 29.2262 94.1135 28.8601C93.7832 28.4939 93.3309 28.3108 92.7566 28.3108C92.1391 28.3108 91.6437 28.5154 91.2704 28.9247C90.9043 29.3339 90.7212 29.937 90.7212 30.7339V33.8462H90.2473V30.4539C90.2473 29.7575 90.0786 29.2262 89.7412 28.8601C89.4109 28.4939 88.9586 28.3108 88.3843 28.3108C87.774 28.3108 87.2822 28.5154 86.9089 28.9247C86.5427 29.3339 86.3596 29.937 86.3596 30.7339V33.8462H85.875V27.9985H86.3596V29.517C86.496 28.9785 86.7581 28.5729 87.1458 28.3001C87.5407 28.0201 87.993 27.8801 88.5027 27.8801C89.034 27.8801 89.4899 28.0272 89.8704 28.3216C90.2581 28.6088 90.513 29.0396 90.635 29.6139C90.7714 29.0396 91.0407 28.6088 91.4427 28.3216C91.852 28.0272 92.3222 27.8801 92.8535 27.8801Z" fill="#056FFE"/>
<path d="M99.0812 33.5124C99.67 33.5124 100.165 33.3652 100.567 33.0708C100.969 32.7693 101.214 32.3601 101.3 31.8431H101.806C101.698 32.4678 101.404 32.9703 100.923 33.3508C100.449 33.7313 99.8423 33.9216 99.1028 33.9216C98.5499 33.9216 98.0582 33.8031 97.6274 33.5662C97.2038 33.3221 96.8699 32.9739 96.6258 32.5216C96.3817 32.0693 96.2597 31.5344 96.2597 30.917C96.2597 30.3067 96.3817 29.7754 96.6258 29.3231C96.8699 28.8708 97.2038 28.5262 97.6274 28.2893C98.0582 28.0452 98.5499 27.9231 99.1028 27.9231C99.67 27.9231 100.158 28.0452 100.567 28.2893C100.984 28.5262 101.296 28.8421 101.504 29.237C101.72 29.6247 101.827 30.0411 101.827 30.4862C101.827 30.6657 101.809 30.856 101.774 31.057H96.7443C96.7515 31.6026 96.8628 32.0621 97.0782 32.4354C97.3007 32.8016 97.5843 33.0744 97.9289 33.2539C98.2807 33.4262 98.6648 33.5124 99.0812 33.5124ZM99.1028 28.3216C98.6792 28.3216 98.2915 28.4113 97.9397 28.5908C97.5879 28.7703 97.3007 29.0431 97.0782 29.4093C96.8628 29.7754 96.7515 30.2278 96.7443 30.7662H101.354C101.382 30.2278 101.293 29.7754 101.084 29.4093C100.876 29.036 100.596 28.7631 100.244 28.5908C99.8925 28.4113 99.512 28.3216 99.1028 28.3216Z" fill="#056FFE"/>
<path d="M105.775 27.8801C106.464 27.8801 107.024 28.0954 107.455 28.5262C107.885 28.957 108.101 29.5924 108.101 30.4324V33.8462H107.616V30.4539C107.616 29.7503 107.44 29.2154 107.088 28.8493C106.737 28.476 106.256 28.2893 105.645 28.2893C105.014 28.2893 104.504 28.4975 104.116 28.9139C103.736 29.3231 103.545 29.9298 103.545 30.7339V33.8462H103.061V27.9985H103.545V29.5385C103.689 28.9929 103.962 28.5801 104.364 28.3001C104.773 28.0201 105.243 27.8801 105.775 27.8801Z" fill="#056FFE"/>
<path d="M110.293 28.4401V32.1985C110.293 32.6652 110.376 32.9847 110.541 33.157C110.706 33.3221 110.997 33.4047 111.413 33.4047H112.027V33.8462H111.359C110.821 33.8462 110.426 33.7206 110.175 33.4693C109.931 33.218 109.809 32.7944 109.809 32.1985V28.4401H108.883V27.9985H109.809V26.5124H110.293V27.9985H112.027V28.4401H110.293Z" fill="#056FFE"/>
<path d="M115.691 27.9231C116.243 27.9231 116.739 28.0452 117.177 28.2893C117.615 28.5262 117.956 28.8708 118.2 29.3231C118.451 29.7754 118.577 30.3067 118.577 30.917C118.577 31.5344 118.451 32.0693 118.2 32.5216C117.956 32.9739 117.615 33.3221 117.177 33.5662C116.739 33.8031 116.243 33.9216 115.691 33.9216C115.145 33.9216 114.653 33.8031 114.215 33.5662C113.777 33.3221 113.433 32.9739 113.181 32.5216C112.93 32.0621 112.804 31.5272 112.804 30.917C112.804 30.3067 112.93 29.7754 113.181 29.3231C113.433 28.8708 113.777 28.5262 114.215 28.2893C114.653 28.0452 115.145 27.9231 115.691 27.9231ZM115.691 28.3539C115.267 28.3539 114.872 28.4472 114.506 28.6339C114.147 28.8206 113.856 29.1078 113.634 29.4954C113.411 29.876 113.3 30.3498 113.3 30.917C113.3 31.4842 113.411 31.9616 113.634 32.3493C113.856 32.737 114.147 33.0242 114.506 33.2108C114.872 33.3975 115.267 33.4908 115.691 33.4908C116.114 33.4908 116.506 33.3975 116.864 33.2108C117.231 33.0242 117.525 32.737 117.748 32.3493C117.97 31.9616 118.081 31.4842 118.081 30.917C118.081 30.3498 117.97 29.876 117.748 29.4954C117.532 29.1078 117.241 28.8206 116.875 28.6339C116.516 28.4472 116.121 28.3539 115.691 28.3539Z" fill="#056FFE"/>
<path d="M120.3 29.2908C120.451 28.8313 120.717 28.4831 121.097 28.2462C121.478 28.0021 121.963 27.8801 122.551 27.8801V28.4078H122.39C121.801 28.4078 121.306 28.5729 120.904 28.9031C120.501 29.2334 120.3 29.7683 120.3 30.5078V33.8462H119.816V27.9985H120.3V29.2908Z" fill="#056FFE"/>
<path fill-rule="evenodd" clip-rule="evenodd" d="M17.4826 40C16.235 38.8325 14.5913 37.4223 13.4169 35.8588C10.6888 35.6845 8.07746 34.6879 5.92693 33.0002C3.77639 31.3125 2.18754 29.013 1.36969 26.4045C0.551831 23.7961 0.543334 21.001 1.34532 18.3877C2.14731 15.7743 3.72215 13.4651 5.86238 11.7644C5.00922 10.1098 4.36188 8.35691 3.93483 6.54492C5.48694 9.49805 7.65716 12.3184 10.5508 14.0125C9.37867 20.285 12.9911 33.5718 17.4895 40" fill="#056FFE"/>
<path fill-rule="evenodd" clip-rule="evenodd" d="M22.1864 33.3222C20.5887 34.4816 18.7549 35.2742 16.8158 35.6435C16.0214 32.1547 15.6254 28.659 16.1565 25.5708C17.4659 29.1603 19.5789 31.5984 22.1864 33.3314" fill="#056FFE"/>
<path fill-rule="evenodd" clip-rule="evenodd" d="M18.565 9.52097C18.7344 9.57591 18.9015 9.63772 19.0664 9.69953C18.9619 9.19803 18.7501 8.72512 18.4454 8.31333C18.1407 7.90154 17.7504 7.56065 17.3013 7.31413C16.0217 6.61362 14.3253 6.70748 13.3043 8.03982L12.2261 5.13934L18.5971 4.01074L21.7242 9.50494L20.0439 10.1047C22.1029 11.0737 23.8843 12.5464 25.2232 14.3864C26.5622 16.2264 27.4155 18.3744 27.7041 20.6317C27.9928 22.8889 27.7076 25.1825 26.8748 27.3003C26.042 29.4181 24.6886 31.2917 22.9398 32.7477L23.2786 33.9702C20.559 30.2066 16.9465 21.2328 17.5074 16.842C19.5677 17.1487 22.269 19.3762 25.5198 23.2862C24.0523 17.5631 20.7123 14.7725 16.642 12.8862C17.1015 12.6689 17.4874 12.3221 17.7524 11.8883C18.0174 11.4546 18.1498 10.9529 18.1334 10.445C18.117 9.93698 17.9525 9.44487 17.6602 9.02913C17.3678 8.61339 16.9603 8.29216 16.4878 8.10493C16.0154 7.9177 15.4984 7.87264 15.0007 7.97529C14.5029 8.07794 14.046 8.32383 13.6861 8.68271C13.3262 9.0416 13.0791 9.49783 12.9751 9.99532C12.871 10.4928 12.9147 11.0098 13.1006 11.4829L12.7389 11.3569C10.5801 10.6152 8.42364 8.86395 6.49609 6.81049C7.83988 7.82234 9.25921 8.71057 10.8617 9.26457C11.5862 9.07613 12.3251 8.94826 13.0708 8.88227C13.3385 8.33828 13.768 7.89053 14.3005 7.60056C14.8329 7.31058 15.4421 7.19262 16.0442 7.26288C16.6464 7.33313 17.2121 7.58816 17.6634 7.99291C18.1148 8.39766 18.4298 8.93226 18.565 9.52326" fill="#056FFE"/>
<path fill-rule="evenodd" clip-rule="evenodd" d="M1.852 0L3.37893 1.575L5.42552 0.785213L4.39765 2.72421L5.78264 4.42741L3.62159 4.04968L2.42889 5.89253L2.11985 3.72003L0 3.15688L1.97104 2.19081L1.852 0Z" fill="#056FFE"/>
</svg>
